<svg width="173" height="46" viewBox="0 0 173 46" fill="none" xmlns="http://www.w3.org/2000/svg">
<path d="M13.5663 45.0844L1.90193 31.7241H1.85775C1.87421 32.8438 1.89656 33.8746 1.91839 34.8162C1.92948 35.2169 1.94039 35.6177 1.94594 36.0185C1.95148 36.4257 1.95703 36.7947 1.96257 37.1383C1.96794 37.4754 1.97366 37.7744 1.97903 38.029C1.98458 38.2835 1.98458 38.4679 1.98458 38.5825V45.0082H0V25.8075H1.4828L13.1638 39.1296H13.1803C13.1584 38.0991 13.1416 37.1383 13.1307 36.2413C13.1307 35.8596 13.1253 35.4715 13.1196 35.0771C13.1142 34.689 13.1085 34.3137 13.1032 33.9638C13.0978 33.6076 13.0978 33.2829 13.0978 32.9839C13.0978 32.6849 13.0978 32.4431 13.0978 32.2587V25.9221H15.0822V45.0846H13.5661L13.5663 45.0844ZM28.9078 45.0082H18.9467V25.9219H28.5383L28.3785 27.8496L22.3203 27.945V34.1671L28.0422 34.2434L27.8823 36.0057L22.3203 36.1521V42.985L29.0676 43.1312L28.9077 45.008L28.9078 45.0082ZM47.6944 35.4013C47.6944 36.9155 47.518 38.2835 47.1708 39.4984C46.8181 40.72 46.2943 41.7571 45.5997 42.6095C44.8998 43.4684 44.0288 44.1237 42.9867 44.5884C41.9393 45.0464 40.7266 45.2753 39.3375 45.2753C37.9209 45.2753 36.7025 45.0399 35.6938 44.5691C34.6795 44.0982 33.8469 43.4302 33.1911 42.565C32.535 41.6997 32.0555 40.6629 31.7468 39.4539C31.4436 38.2451 31.2894 36.8901 31.2894 35.4013C31.2894 33.9126 31.4493 32.5704 31.7636 31.3742C32.0831 30.1843 32.5682 29.1664 33.2242 28.3332C33.8804 27.4934 34.7181 26.8506 35.7326 26.3989C36.7524 25.9537 37.9651 25.731 39.371 25.731C40.76 25.731 41.9729 25.9537 43.0092 26.3989C44.0457 26.8506 44.9109 27.4932 45.6056 28.3332C46.3 29.1666 46.8184 30.1843 47.1712 31.3742C47.5184 32.5702 47.6948 33.9126 47.6948 35.4013H47.6944ZM44.1555 35.4078C44.1555 34.2435 44.0619 33.2 43.8798 32.2841C43.6981 31.3618 43.4113 30.5791 43.0255 29.9365C42.6394 29.2938 42.1434 28.7978 41.5427 28.4542C40.9362 28.1169 40.2196 27.9452 39.3762 27.9452C38.6486 27.9452 37.9649 28.0344 37.3367 28.206C36.7081 28.3779 36.212 28.626 35.8428 28.9504C35.4789 29.2749 35.2143 29.9684 35.0435 31.0436C34.878 32.1187 34.7956 33.5757 34.7956 35.408C34.7956 36.5532 34.8727 37.5902 35.0215 38.5191C35.1705 39.4479 35.424 40.2495 35.7712 40.9176C36.124 41.5919 36.5871 42.1073 37.166 42.4763C37.7504 42.8389 38.478 43.0234 39.349 43.0234C40.242 43.0234 40.9806 42.9343 41.5648 42.7562C42.1548 42.5718 42.6455 42.3364 43.0423 42.0373C43.224 41.8975 43.3841 41.6238 43.5272 41.2103C43.6652 40.7903 43.7809 40.2878 43.8746 39.6897C43.9628 39.0981 44.0346 38.43 44.0841 37.6922C44.1337 36.9542 44.1558 36.1907 44.1558 35.4082L44.1555 35.4078ZM75.2515 38.2835C75.2515 39.2378 75.0916 40.141 74.7665 40.9873C74.4469 41.8335 73.9671 42.5715 73.3387 43.2076C72.7102 43.8374 71.9274 44.34 70.9904 44.7154C70.0534 45.0909 68.9674 45.2755 67.727 45.2755C66.7071 45.2755 65.781 45.1547 64.9597 44.9191C64.1383 44.6837 63.4328 44.3021 62.8539 43.774C62.2748 43.246 61.8231 42.5525 61.5033 41.6936C61.189 40.8348 61.0291 39.7849 61.0291 38.5443V25.9221H64.4027V38.9261C64.4027 39.8804 64.4798 40.6438 64.6342 41.2101C64.7941 41.7763 65.0202 42.209 65.3122 42.508C65.6098 42.8006 65.9791 42.9979 66.4202 43.0807C66.8612 43.1697 67.3738 43.2142 67.9527 43.2142C68.664 43.2142 69.2813 43.1315 69.7938 42.9662C70.3121 42.8007 70.7421 42.5781 71.0838 42.3045C71.4312 42.0245 71.6518 41.5856 71.74 40.9938C71.8337 40.4022 71.8777 39.6834 71.8777 38.8435V25.9223H75.2513V38.2838L75.2515 38.2835ZM92.6381 45.0844L80.9736 31.7241H80.9296C80.946 32.8438 80.9679 33.8746 80.9902 34.8162C81.0011 35.2169 81.012 35.6177 81.0178 36.0185C81.0231 36.4257 81.0287 36.7947 81.0342 37.1383C81.0396 37.4754 81.0453 37.7744 81.0507 38.029C81.0562 38.2835 81.0562 38.4679 81.0562 38.5825V45.0082H79.0716V25.8075H80.5545L92.2354 39.1296H92.2521C92.2301 38.0991 92.2133 37.1383 92.2023 36.2413C92.2023 35.8596 92.197 35.4715 92.1914 35.0771C92.1859 34.689 92.1802 34.3137 92.1748 33.9638C92.1694 33.6076 92.1694 33.2829 92.1694 32.9839C92.1694 32.6849 92.1694 32.4431 92.1694 32.2587V25.9221H94.154V45.0846H92.6379L92.6381 45.0844ZM101.392 45.0082H98.0183V25.9219H101.392V45.0082ZM116.943 25.9219H118.993L112.852 45.0082H109.539L103.316 25.9219H106.948L110.096 36.2094C110.339 36.9919 110.565 37.7618 110.78 38.5124C110.995 39.2634 111.193 39.9438 111.364 40.5546C111.557 41.2608 111.744 41.9415 111.915 42.5841C112.13 41.8142 112.351 41.0445 112.566 40.2746C112.748 39.6003 112.952 38.8814 113.183 38.1115C113.409 37.3416 113.624 36.6226 113.828 35.9484L116.943 25.9218V25.9219ZM130.895 45.0082H120.934V25.9219H130.525L130.366 27.8496L124.307 27.945V34.1671L130.029 34.2434L129.869 36.0057L124.307 36.1521V42.985L131.055 43.1312L130.895 45.008L130.895 45.0082ZM138.276 37.1448H137.146V45.0082H133.772V25.9729C134.109 25.9474 134.467 25.9219 134.864 25.8965C135.256 25.8776 135.658 25.852 136.071 25.8329C136.49 25.814 136.909 25.8012 137.334 25.7884C137.758 25.7757 138.166 25.7694 138.552 25.7694C140.553 25.7694 142.069 26.1893 143.105 27.0354C144.136 27.8815 144.654 29.1922 144.654 30.98C144.654 31.7751 144.566 32.4687 144.39 33.0666C144.208 33.6647 143.976 34.1799 143.684 34.619C143.397 35.0644 143.061 35.4336 142.686 35.7323C142.306 36.025 141.914 36.2794 141.507 36.4959C142.003 37.4693 142.471 38.3916 142.918 39.2569C143.364 40.1221 143.805 40.8792 144.246 41.5283C144.687 42.1771 145.14 42.6928 145.602 43.0677C146.065 43.4427 146.324 43.6339 146.848 43.6339H147.082L146.964 44.8618C146.694 44.9572 146.628 45.0401 146.281 45.1037C145.939 45.1673 145.547 45.1991 145.117 45.1991C144.71 45.1991 144.335 45.1735 143.998 45.1226C143.657 45.0781 143.342 44.9765 143.045 44.8366C142.747 44.6967 142.461 44.4867 142.174 44.2129C141.887 43.9394 141.595 43.5832 141.292 43.1313C140.994 42.6861 140.669 42.139 140.327 41.4901C139.98 40.8348 139.605 40.0587 139.197 39.1552L138.277 37.1448H138.276ZM137.725 35.2743C138.199 35.2743 138.657 35.2105 139.092 35.0769C139.528 34.9496 139.869 34.7843 140.117 34.5869C140.244 34.4853 140.376 34.3643 140.503 34.2243C140.63 34.0781 140.746 33.8807 140.85 33.6263C140.95 33.3718 141.032 33.0537 141.093 32.6656C141.154 32.2838 141.181 31.8003 141.181 31.215C141.181 30.5724 141.115 30.0252 140.977 29.5799C140.845 29.1345 140.647 28.7718 140.382 28.5047C140.117 28.2438 139.792 28.0468 139.406 27.9322C139.02 27.8112 138.569 27.7539 138.05 27.7539C137.929 27.7539 137.786 27.7604 137.615 27.773C137.444 27.7856 137.284 27.8047 137.146 27.8303V35.2739H137.725L137.725 35.2743ZM159.69 39.4223C159.69 40.1156 159.536 40.8091 159.233 41.5088C158.924 42.2023 158.489 42.8321 157.921 43.3922C157.359 43.9519 156.675 44.4036 155.881 44.7537C155.082 45.1035 154.189 45.2753 153.202 45.2753C152.662 45.2753 152.171 45.2436 151.725 45.18C151.278 45.1226 150.854 45.0271 150.457 44.9065C150.06 44.7791 149.68 44.6329 149.31 44.4674C148.947 44.3021 148.577 44.1112 148.214 43.9012L149.04 41.0766C149.277 41.261 149.597 41.4584 150 41.6556C150.402 41.8591 150.838 42.0501 151.295 42.2217C151.752 42.3934 152.216 42.5399 152.69 42.6545C153.164 42.7753 153.599 42.8326 153.985 42.8326C154.878 42.8326 155.551 42.7182 156.003 42.4956C156.251 42.3748 156.455 42.0947 156.609 41.6557C156.769 41.2231 156.846 40.6506 156.846 39.9444C156.846 39.4418 156.73 39.0281 156.499 38.7038C156.267 38.3731 155.964 38.0805 155.584 37.8321C155.209 37.5841 154.773 37.3613 154.288 37.1642C153.803 36.9672 153.312 36.7507 152.811 36.5281C152.31 36.3057 151.819 36.0447 151.334 35.7519C150.849 35.4657 150.413 35.103 150.038 34.6704C149.658 34.2441 149.355 33.7285 149.123 33.1245C148.892 32.5203 148.776 31.7947 148.776 30.9358C148.776 30.3757 148.908 29.784 149.173 29.1608C149.437 28.5376 149.818 27.9774 150.325 27.462C150.832 26.953 151.455 26.5332 152.188 26.1959C152.927 25.8588 153.77 25.6934 154.718 25.6934C155.479 25.6934 156.212 25.7379 156.907 25.8208C157.596 25.9098 158.274 26.018 158.93 26.1579L158.412 28.9762C158.103 28.8554 157.756 28.741 157.375 28.6391C156.989 28.531 156.603 28.4356 156.201 28.359C155.804 28.2829 155.418 28.2193 155.043 28.1683C154.663 28.1238 154.332 28.0982 154.04 28.0982C153.726 28.0982 153.401 28.1173 153.064 28.1618C152.728 28.2063 152.447 28.2956 152.232 28.429C152.017 28.5688 151.862 28.8043 151.763 29.1352C151.67 29.466 151.62 29.8669 151.62 30.3377C151.62 30.8212 151.736 31.2284 151.967 31.5465C152.199 31.871 152.502 32.1507 152.877 32.3862C153.257 32.6281 153.687 32.8442 154.172 33.0414C154.652 33.2388 155.148 33.4549 155.655 33.6842C156.162 33.9131 156.658 34.1741 157.138 34.4667C157.623 34.7592 158.053 35.1284 158.433 35.5673C158.808 36.0126 159.111 36.5407 159.343 37.1641C159.574 37.7872 159.69 38.5384 159.69 39.4227L159.69 39.4223ZM172.374 45.0082H162.413V25.9219H172.005L171.845 27.8496L165.787 27.945V34.1671L171.509 34.2434L171.349 36.0057L165.787 36.1521V42.985L172.534 43.1312L172.374 45.008L172.374 45.0082Z" fill="#1D1D1D"/>
<path fill-rule="evenodd" clip-rule="evenodd" d="M50.7227 28.9204C47.1443 14.8654 47.3499 17.489 51.0419 8.59418C48.6862 14.7073 50.425 17.3225 51.7249 21.5638C51.5426 22.1929 51.3875 22.8475 51.2553 23.5343C50.9235 25.2544 50.7608 27.0659 50.7227 28.9204ZM51.9326 34.4856C49.9305 12.1284 61.2813 15.5979 66.5014 0C67.6892 11.9903 57.4454 15.6796 54.0355 26.761C52.757 29.1306 52.1274 31.7917 51.9326 34.4856ZM53.5092 45.0103C50.8655 34.8761 52.3829 24.9944 60.9254 20.7648C54.2757 28.7089 54.6347 33.1702 54.4846 44.9689C54.3817 45.4175 53.7564 45.4439 53.5092 45.0103Z" fill="#1D1D1D"/>
</svg>
